<svg xmlns="http://www.w3.org/2000/svg" viewBox="0 0 40 40" width="32" height="32">
  <circle cx="20" cy="20" r="18" fill="none" stroke="#00e5a0" stroke-width="1.5" stroke-dasharray="6 4" stroke-linecap="round"/>
  <circle cx="20" cy="20" r="13" fill="#00e5a0"/>
  <g transform="translate(7 7) scale(1.08)">
    <path d="M22 16.92v3a2 2 0 0 1-2.18 2 19.79 19.79 0 0 1-8.63-3.07 19.5 19.5 0 0 1-6-6 19.79 19.79 0 0 1-3.07-8.67A2 2 0 0 1 4.11 2h3a2 2 0 0 1 2 1.72 12.84 12.84 0 0 0 .7 2.81 2 2 0 0 1-.45 2.11L8.09 9.91a16 16 0 0 0 6 6l1.27-1.27a2 2 0 0 1 2.11-.45 12.84 12.84 0 0 0 2.81.7A2 2 0 0 1 22 16.92z" fill="none" stroke="#0a0e1a" stroke-width="2" stroke-linecap="round" stroke-linejoin="round"/>
  </g>
</svg>